ffmpeg started on 2016-12-03 at 14:41:13
Report written to "Output/x264/results/ffmpeg/old_town_cross_2160p50placebo12000k.log"
Command line:
Tools/ffmpeg/ffmpeg -benchmark -y -i Input/y4m/old_town_cross_2160p50.y4m -c:v libx264 -preset placebo -b:v 12000k -an Output/x264/encoded/old_town_cross_2160p50placebo12000k.mkv
ffmpeg version N-82227-gdb23fde Copyright (c) 2000-2016 the FFmpeg developers
  built with gcc 5.4.0 (Ubuntu 5.4.0-6ubuntu1~16.04.2) 20160609
  configuration: --prefix=/home/jaroslav/ffmpeg_build --pkg-config-flags=--static --extra-cflags=-I/home/jaroslav/ffmpeg_build/include --extra-ldflags=-L/home/jaroslav/ffmpeg_build/lib --bindir=/home/jaroslav/bin --enable-gpl --enable-libass --enable-libfdk-aac --enable-libfreetype --enable-libmp3lame --enable-libopus --enable-libtheora --enable-libvorbis --enable-libvpx --enable-libx264 --enable-libx265 --enable-nvenc --enable-libmfx --enable-libxvid --enable-libgsm --enable-libopencore-amrnb --enable-version3 --enable-nonfree
  libavutil      55. 35.100 / 55. 35.100
  libavcodec     57. 66.101 / 57. 66.101
  libavformat    57. 57.100 / 57. 57.100
  libavdevice    57.  2.100 / 57.  2.100
  libavfilter     6. 66.100 /  6. 66.100
  libswscale      4.  3.100 /  4.  3.100
  libswresample   2.  4.100 /  2.  4.100
  libpostproc    54.  2.100 / 54.  2.100
Input #0, yuv4mpegpipe, from 'Input/y4m/old_town_cross_2160p50.y4m':
  Duration: 00:00:10.00, start: 0.000000, bitrate: 4976642 kb/s
    Stream #0:0: Video: rawvideo (I420 / 0x30323449), yuv420p(progressive), 3840x2160, SAR 1:1 DAR 16:9, 50 fps, 50 tbr, 50 tbn, 50 tbc
[libx264 @ 0x3642120] using SAR=1/1
[libx264 @ 0x3642120] DPB size (16 frames, 518400 mbs) > level limit (5 frames, 184320 mbs)
[libx264 @ 0x3642120] using cpu capabilities: MMX2 SSE2Fast SSSE3 SSE4.2 AVX FMA3 AVX2 LZCNT BMI2
[libx264 @ 0x3642120] profile High, level 5.2
[libx264 @ 0x3642120] 264 - core 148 - H.264/MPEG-4 AVC codec - Copyleft 2003-2016 - http://www.videolan.org/x264.html - options: cabac=1 ref=16 deblock=1:0:0 analyse=0x3:0x133 me=tesa subme=11 psy=1 psy_rd=1.00:0.00 mixed_ref=1 me_range=24 chroma_me=1 trellis=2 8x8dct=1 cqm=0 deadzone=21,11 fast_pskip=0 chroma_qp_offset=-2 threads=6 lookahead_threads=1 sliced_threads=0 nr=0 decimate=1 interlaced=0 bluray_compat=0 constrained_intra=0 bframes=16 b_pyramid=2 b_adapt=2 b_bias=0 direct=3 weightb=1 open_gop=0 weightp=2 keyint=250 keyint_min=25 scenecut=40 intra_refresh=0 rc_lookahead=60 rc=abr mbtree=1 bitrate=12000 ratetol=1.0 qcomp=0.60 qpmin=0 qpmax=69 qpstep=4 ip_ratio=1.40 aq=1:1.00
Output #0, matroska, to 'Output/x264/encoded/old_town_cross_2160p50placebo12000k.mkv':
  Metadata:
    encoder         : Lavf57.57.100
    Stream #0:0: Video: h264 (libx264) (H264 / 0x34363248), yuv420p, 3840x2160 [SAR 1:1 DAR 16:9], q=-1--1, 12000 kb/s, 50 fps, 1k tbn, 50 tbc
    Metadata:
      encoder         : Lavc57.66.101 libx264
    Side data:
      cpb: bitrate max/min/avg: 0/0/12000000 buffer size: 0 vbv_delay: -1
Stream mapping:
  Stream #0:0 -> #0:0 (rawvideo (native) -> h264 (libx264))
Press [q] to stop, [?] for help
frame=   58 fps=0.0 q=0.0 size=       0kB time=00:00:00.00 bitrate=N/A speed=   0x    frame=   84 fps=3.3 q=0.0 size=       0kB time=00:00:00.00 bitrate=N/A speed=   0x    frame=   89 fps=3.1 q=32.0 size=       1kB time=-00:00:00.01 bitrate=N/A speed=N/A    frame=   90 fps=2.2 q=32.0 size=       1kB time=00:00:00.00 bitrate=5888.0kbits/s speed=2.47e-05x    frame=   91 fps=2.2 q=32.0 size=       1kB time=00:00:00.02 bitrate= 280.4kbits/s speed=0.000498x    frame=   92 fps=2.1 q=32.0 size=       1kB time=00:00:00.04 bitrate= 143.6kbits/s speed=0.000943x    frame=   95 fps=2.1 q=32.0 size=       1kB time=00:00:00.10 bitrate=  58.3kbits/s speed=0.00227x    frame=   96 fps=1.7 q=32.0 size=       1kB time=00:00:00.12 bitrate=  48.7kbits/s speed=0.00218x    frame=   97 fps=1.7 q=32.0 size=       1kB time=00:00:00.14 bitrate=  41.8kbits/s speed=0.00248x    frame=   99 fps=1.7 q=36.0 size=       1kB time=00:00:00.18 bitrate=  32.5kbits/s speed=0.00315x    frame=  101 fps=1.7 q=34.0 size=       1kB time=00:00:00.22 bitrate=  26.6kbits/s speed=0.00379x    frame=  102 fps=1.5 q=34.0 size=       1kB time=00:00:00.24 bitrate=  24.4kbits/s speed=0.00363x    frame=  106 fps=1.4 q=38.0 size=       1kB time=00:00:00.32 bitrate=  18.3kbits/s speed=0.00433x    frame=  108 fps=1.3 q=46.0 size=       1kB time=00:00:00.36 bitrate=  16.3kbits/s speed=0.00444x    frame=  112 fps=1.4 q=41.0 size=       1kB time=00:00:00.44 bitrate=  13.4kbits/s speed=0.00535x    frame=  114 fps=1.3 q=42.0 size=       1kB time=00:00:00.48 bitrate=  12.2kbits/s speed=0.00556x    frame=  115 fps=1.3 q=43.0 size=       1kB time=00:00:00.50 bitrate=  11.8kbits/s speed=0.00571x    frame=  116 fps=1.3 q=44.0 size=       1kB time=00:00:00.52 bitrate=  11.3kbits/s speed=0.00578x    frame=  120 fps=1.3 q=45.0 size=       1kB time=00:00:00.60 bitrate=   9.8kbits/s speed=0.00635x    frame=  121 fps=1.3 q=46.0 size=       1kB time=00:00:00.62 bitrate=   9.5kbits/s speed=0.00646x    frame=  122 fps=1.2 q=42.0 size=       1kB time=00:00:00.64 bitrate=   9.2kbits/s speed=0.00651x    frame=  126 fps=1.2 q=45.0 size=       1kB time=00:00:00.72 bitrate=   8.2kbits/s speed=0.00715x    frame=  128 fps=1.2 q=44.0 size=       1kB time=00:00:00.76 bitrate=   7.7kbits/s speed=0.00699x    frame=  129 fps=1.2 q=44.0 size=       1kB time=00:00:00.78 bitrate=   7.5kbits/s speed=0.00712x    frame=  130 fps=1.2 q=44.0 size=       1kB time=00:00:00.80 bitrate=   7.4kbits/s speed=0.00724x    frame=  134 fps=1.2 q=40.0 size=       1kB time=00:00:00.88 bitrate=   6.7kbits/s speed=0.00763x    frame=  135 fps=1.1 q=41.0 size=       1kB time=00:00:00.90 bitrate=   6.5kbits/s speed=0.00764x    frame=  137 fps=1.2 q=42.0 size=       1kB time=00:00:00.94 bitrate=   6.3kbits/s speed=0.00795x    frame=  138 fps=1.2 q=42.0 size=       1kB time=00:00:00.96 bitrate=   6.1kbits/s speed=0.00808x    frame=  140 fps=1.1 q=41.0 size=       1kB time=00:00:01.00 bitrate=   5.9kbits/s speed=0.00764x    frame=  141 fps=1.1 q=41.0 size=       1kB time=00:00:01.02 bitrate=   5.8kbits/s speed=0.00775x    frame=  142 fps=1.1 q=41.0 size=       1kB time=00:00:01.04 bitrate=   5.7kbits/s speed=0.00782x    frame=  146 fps=1.0 q=40.0 size=       1kB time=00:00:01.12 bitrate=   5.3kbits/s speed=0.008x    frame=  147 fps=1.0 q=40.0 size=       1kB time=00:00:01.14 bitrate=   5.2kbits/s speed=0.008x    frame=  148 fps=1.0 q=40.0 size=       1kB time=00:00:01.16 bitrate=   5.1kbits/s speed=0.00808x    frame=  149 fps=1.0 q=40.0 size=       1kB time=00:00:01.18 bitrate=   5.0kbits/s speed=0.00815x    frame=  150 fps=1.0 q=39.0 size=       1kB time=00:00:01.20 bitrate=   4.9kbits/s speed=0.00771x    frame=  151 fps=1.0 q=39.0 size=       1kB time=00:00:01.22 bitrate=   4.8kbits/s speed=0.00778x    frame=  152 fps=1.0 q=39.0 size=       1kB time=00:00:01.24 bitrate=   4.7kbits/s speed=0.00784x    frame=  156 fps=0.9 q=39.0 size=       1kB time=00:00:01.32 bitrate=   4.5kbits/s speed=0.00781x    frame=  158 fps=0.9 q=39.0 size=       1kB time=00:00:01.36 bitrate=   4.3kbits/s speed=0.0079x    frame=  160 fps=0.9 q=38.0 size=       1kB time=00:00:01.40 bitrate=   4.2kbits/s speed=0.00753x    frame=  161 fps=0.9 q=38.0 size=       1kB time=00:00:01.42 bitrate=   4.1kbits/s speed=0.00758x    frame=  162 fps=0.9 q=38.0 size=       1kB time=00:00:01.44 bitrate=   4.1kbits/s speed=0.00764x    frame=  164 fps=0.9 q=37.0 size=       1kB time=00:00:01.48 bitrate=   4.0kbits/s speed=0.00783x    frame=  166 fps=0.8 q=38.0 size=       1kB time=00:00:01.52 bitrate=   3.9kbits/s speed=0.00758x    frame=  167 fps=0.8 q=38.0 size=       1kB time=00:00:01.54 bitrate=   3.8kbits/s speed=0.00758x    frame=  168 fps=0.8 q=38.0 size=       1kB time=00:00:01.56 bitrate=   3.8kbits/s speed=0.00762x    frame=  170 fps=0.8 q=37.0 size=       1kB time=00:00:01.60 bitrate=   3.7kbits/s speed=0.00722x    frame=  171 fps=0.8 q=37.0 size=       1kB time=00:00:01.62 bitrate=   3.6kbits/s speed=0.00726x    frame=  172 fps=0.8 q=37.0 size=       1kB time=00:00:01.64 bitrate=   3.6kbits/s speed=0.00731x    frame=  175 fps=0.8 q=36.0 size=       1kB time=00:00:01.70 bitrate=   3.5kbits/s speed=0.00755x    frame=  176 fps=0.7 q=37.0 size=       1kB time=00:00:01.72 bitrate=   3.4kbits/s speed=0.00723x    frame=  177 fps=0.7 q=37.0 size=       1kB time=00:00:01.74 bitrate=   3.4kbits/s speed=0.00725x    frame=  178 fps=0.7 q=37.0 size=       1kB time=00:00:01.76 bitrate=   3.3kbits/s speed=0.00726x    frame=  180 fps=0.7 q=37.0 size=       1kB time=00:00:01.80 bitrate=   3.3kbits/s speed=0.00733x    frame=  181 fps=0.7 q=37.0 size=       1kB time=00:00:01.82 bitrate=   3.2kbits/s speed=0.00696x    frame=  182 fps=0.7 q=37.0 size=       1kB time=00:00:01.84 bitrate=   3.2kbits/s speed=0.007x    frame=  183 fps=0.7 q=36.0 size=       1kB time=00:00:01.86 bitrate=   3.2kbits/s speed=0.00703x    frame=  186 fps=0.7 q=36.0 size=       1kB time=00:00:01.92 bitrate=   3.1kbits/s speed=0.00724x    frame=  187 fps=0.7 q=36.0 size=       1kB time=00:00:01.94 bitrate=   3.0kbits/s speed=0.00696x    frame=  188 fps=0.7 q=36.0 size=       1kB time=00:00:01.96 bitrate=   3.0kbits/s speed=0.00694x    frame=  189 fps=0.7 q=36.0 size=       1kB time=00:00:01.98 bitrate=   3.0kbits/s speed=0.00693x    frame=  190 fps=0.7 q=36.0 size=       1kB time=00:00:02.00 bitrate=   2.9kbits/s speed=0.0069x    frame=  192 fps=0.6 q=36.0 size=       1kB time=00:00:02.04 bitrate=   2.9kbits/s speed=0.00676x    frame=  193 fps=0.6 q=36.0 size=       1kB time=00:00:02.06 bitrate=   2.9kbits/s speed=0.00679x    frame=  194 fps=0.6 q=36.0 size=       1kB time=00:00:02.08 bitrate=   2.8kbits/s speed=0.00682x    frame=  196 fps=0.6 q=36.0 size=       1kB time=00:00:02.12 bitrate=   2.8kbits/s speed=0.00689x    frame=  198 fps=0.6 q=35.0 size=       1kB time=00:00:02.16 bitrate=   2.7kbits/s speed=0.00674x    frame=  199 fps=0.6 q=36.0 size=       1kB time=00:00:02.18 bitrate=   2.7kbits/s speed=0.00675x    frame=  200 fps=0.6 q=36.0 size=       1kB time=00:00:02.20 bitrate=   2.7kbits/s speed=0.00672x    frame=  202 fps=0.6 q=35.0 size=       1kB time=00:00:02.24 bitrate=   2.6kbits/s speed=0.00677x    frame=  203 fps=0.6 q=35.0 size=       1kB time=00:00:02.26 bitrate=   2.6kbits/s speed=0.00656x    frame=  204 fps=0.6 q=35.0 size=       1kB time=00:00:02.28 bitrate=   2.6kbits/s speed=0.00659x    frame=  205 fps=0.6 q=35.0 size=       1kB time=00:00:02.30 bitrate=   2.6kbits/s speed=0.00662x    frame=  208 fps=0.6 q=35.0 size=       1kB time=00:00:02.36 bitrate=   2.5kbits/s speed=0.00676x    frame=  209 fps=0.6 q=35.0 size=       1kB time=00:00:02.38 bitrate=   2.5kbits/s speed=0.00658x    frame=  210 fps=0.6 q=35.0 size=       1kB time=00:00:02.40 bitrate=   2.5kbits/s speed=0.00637x    frame=  211 fps=0.6 q=35.0 size=       1kB time=00:00:02.42 bitrate=   2.4kbits/s speed=0.00639x    frame=  212 fps=0.6 q=35.0 size=       1kB time=00:00:02.44 bitrate=   2.4kbits/s speed=0.00642x    frame=  216 fps=0.5 q=35.0 size=       1kB time=00:00:02.52 bitrate=   2.3kbits/s speed=0.00637x    frame=  217 fps=0.5 q=35.0 size=       1kB time=00:00:02.54 bitrate=   2.3kbits/s speed=0.00639x    frame=  218 fps=0.5 q=35.0 size=       1kB time=00:00:02.56 bitrate=   2.3kbits/s speed=0.00635x    frame=  219 fps=0.5 q=35.0 size=       1kB time=00:00:02.58 bitrate=   2.3kbits/s speed=0.00639x    frame=  221 fps=0.5 q=35.0 size=       1kB time=00:00:02.62 bitrate=   2.2kbits/s speed=0.00627x    frame=  222 fps=0.5 q=35.0 size=       1kB time=00:00:02.64 bitrate=   2.2kbits/s speed=0.00626x    frame=  223 fps=0.5 q=35.0 size=       1kB time=00:00:02.66 bitrate=   2.2kbits/s speed=0.00629x    frame=  224 fps=0.5 q=35.0 size=       1kB time=00:00:02.68 bitrate=   2.2kbits/s speed=0.00631x    frame=  225 fps=0.5 q=35.0 size=       1kB time=00:00:02.70 bitrate=   2.2kbits/s speed=0.00634x    frame=  227 fps=0.5 q=34.0 size=       1kB time=00:00:02.74 bitrate=   2.1kbits/s speed=0.00625x    frame=  228 fps=0.5 q=35.0 size=       1kB time=00:00:02.76 bitrate=   2.1kbits/s speed=0.00623x    frame=  230 fps=0.5 q=35.0 size=       1kB time=00:00:02.80 bitrate=   2.1kbits/s speed=0.00624x    frame=  231 fps=0.5 q=34.0 size=       1kB time=00:00:02.82 bitrate=   2.1kbits/s speed=0.00627x    frame=  232 fps=0.5 q=34.0 size=       1kB time=00:00:02.84 bitrate=   2.1kbits/s speed=0.00612x    frame=  233 fps=0.5 q=34.0 size=       1kB time=00:00:02.86 bitrate=   2.1kbits/s speed=0.00614x    frame=  234 fps=0.5 q=34.0 size=       1kB time=00:00:02.88 bitrate=   2.0kbits/s speed=0.00615x    frame=  236 fps=0.5 q=34.0 size=       1kB time=00:00:02.92 bitrate=   2.0kbits/s speed=0.00622x    frame=  237 fps=0.5 q=34.0 size=       1kB time=00:00:02.94 bitrate=   2.0kbits/s speed=0.00625x    frame=  238 fps=0.5 q=34.0 size=       1kB time=00:00:02.96 bitrate=   2.0kbits/s speed=0.00613x    frame=  239 fps=0.5 q=34.0 size=       1kB time=00:00:02.98 bitrate=   2.0kbits/s speed=0.00615x    frame=  240 fps=0.5 q=34.0 size=       1kB time=00:00:03.00 bitrate=   2.0kbits/s speed=0.00599x    frame=  241 fps=0.5 q=34.0 size=       1kB time=00:00:03.02 bitrate=   1.9kbits/s speed=0.00601x    frame=  242 fps=0.5 q=34.0 size=       1kB time=00:00:03.04 bitrate=   1.9kbits/s speed=0.00604x    frame=  246 fps=0.5 q=34.0 size=       1kB time=00:00:03.12 bitrate=   1.9kbits/s speed=0.00599x    frame=  247 fps=0.5 q=34.0 size=       1kB time=00:00:03.14 bitrate=   1.9kbits/s speed=0.00598x    frame=  249 fps=0.5 q=34.0 size=       1kB time=00:00:03.18 bitrate=   1.9kbits/s speed=0.00605x    frame=  250 fps=0.5 q=34.0 size=       1kB time=00:00:03.20 bitrate=   1.8kbits/s speed=0.00607x    frame=  251 fps=0.5 q=34.0 size=       1kB time=00:00:03.22 bitrate=   1.8kbits/s speed=0.00595x    frame=  252 fps=0.5 q=34.0 size=       1kB time=00:00:03.24 bitrate=   1.8kbits/s speed=0.00592x    frame=  253 fps=0.5 q=34.0 size=       1kB time=00:00:03.26 bitrate=   1.8kbits/s speed=0.00592x    frame=  257 fps=0.5 q=34.0 size=       1kB time=00:00:03.34 bitrate=   1.8kbits/s speed=0.00597x    frame=  258 fps=0.5 q=34.0 size=       1kB time=00:00:03.36 bitrate=   1.8kbits/s speed=0.00593x    frame=  259 fps=0.4 q=34.0 size=       1kB time=00:00:03.38 bitrate=   1.7kbits/s speed=0.00582x    frame=  260 fps=0.4 q=34.0 size=       1kB time=00:00:03.40 bitrate=   1.7kbits/s speed=0.00584x    frame=  261 fps=0.4 q=34.0 size=       1kB time=00:00:03.42 bitrate=   1.7kbits/s speed=0.00586x    frame=  264 fps=0.5 q=34.0 size=       1kB time=00:00:03.48 bitrate=   1.7kbits/s speed=0.00595x    frame=  265 fps=0.4 q=34.0 size=       1kB time=00:00:03.50 bitrate=   1.7kbits/s speed=0.00578x    frame=  266 fps=0.4 q=34.0 size=       1kB time=00:00:03.52 bitrate=   1.7kbits/s speed=0.00579x    frame=  267 fps=0.4 q=34.0 size=       1kB time=00:00:03.54 bitrate=   1.7kbits/s speed=0.00582x    frame=  268 fps=0.4 q=34.0 size=       1kB time=00:00:03.56 bitrate=   1.7kbits/s speed=0.00584x    frame=  270 fps=0.4 q=34.0 size=       1kB time=00:00:03.60 bitrate=   1.6kbits/s speed=0.00578x    frame=  271 fps=0.4 q=34.0 size=       1kB time=00:00:03.62 bitrate=   1.6kbits/s speed=0.00575x    frame=  272 fps=0.4 q=34.0 size=       1kB time=00:00:03.64 bitrate=   1.6kbits/s speed=0.00575x    frame=  276 fps=0.4 q=34.0 size=       1kB time=00:00:03.72 bitrate=   1.6kbits/s speed=0.00573x    frame=  277 fps=0.4 q=34.0 size=       1kB time=00:00:03.74 bitrate=   1.6kbits/s speed=0.00571x    frame=  278 fps=0.4 q=33.0 size=       1kB time=00:00:03.76 bitrate=   1.6kbits/s speed=0.00572x    frame=  279 fps=0.4 q=33.0 size=       1kB time=00:00:03.78 bitrate=   1.6kbits/s speed=0.00574x    frame=  282 fps=0.4 q=34.0 size=    5135kB time=00:00:03.84 bitrate=10951.7kbits/s speed=0.00572x    frame=  283 fps=0.4 q=34.0 size=    5135kB time=00:00:03.86 bitrate=10894.9kbits/s speed=0.0057x    frame=  284 fps=0.4 q=34.0 size=    5135kB time=00:00:03.88 bitrate=10838.8kbits/s speed=0.00564x    frame=  285 fps=0.4 q=33.0 size=    5135kB time=00:00:03.90 bitrate=10783.2kbits/s speed=0.00565x    frame=  286 fps=0.4 q=33.0 size=    5135kB time=00:00:03.92 bitrate=10728.2kbits/s speed=0.00566x    frame=  289 fps=0.4 q=33.0 size=    5135kB time=00:00:03.98 bitrate=10566.5kbits/s speed=0.00571x    frame=  290 fps=0.4 q=33.0 size=    5135kB time=00:00:04.00 bitrate=10513.7kbits/s speed=0.0056x    frame=  291 fps=0.4 q=33.0 size=    5135kB time=00:00:04.02 bitrate=10461.4kbits/s speed=0.00562x    frame=  292 fps=0.4 q=33.0 size=    5135kB time=00:00:04.04 bitrate=10409.6kbits/s speed=0.00563x    frame=  295 fps=0.4 q=33.0 size=    5135kB time=00:00:04.10 bitrate=10257.3kbits/s speed=0.00569x    frame=  296 fps=0.4 q=33.0 size=    5135kB time=00:00:04.12 bitrate=10207.6kbits/s speed=0.0056x    frame=  297 fps=0.4 q=33.0 size=    5135kB time=00:00:04.14 bitrate=10158.3kbits/s speed=0.00552x    frame=  298 fps=0.4 q=33.0 size=    5135kB time=00:00:04.16 bitrate=10109.4kbits/s speed=0.00554x    frame=  299 fps=0.4 q=33.0 size=    5135kB time=00:00:04.18 bitrate=10061.1kbits/s speed=0.00556x    frame=  302 fps=0.4 q=33.0 size=    5135kB time=00:00:04.24 bitrate=9918.7kbits/s speed=0.00561x    frame=  303 fps=0.4 q=33.0 size=    5135kB time=00:00:04.26 bitrate=9872.2kbits/s speed=0.00552x    frame=  304 fps=0.4 q=33.0 size=    5135kB time=00:00:04.28 bitrate=9826.1kbits/s speed=0.00553x    frame=  305 fps=0.4 q=33.0 size=    5135kB time=00:00:04.30 bitrate=9780.4kbits/s speed=0.00554x    frame=  306 fps=0.4 q=33.0 size=    5135kB time=00:00:04.32 bitrate=9735.1kbits/s speed=0.00556x    frame=  307 fps=0.4 q=33.0 size=    5135kB time=00:00:04.34 bitrate=9690.2kbits/s speed=0.00548x    frame=  308 fps=0.4 q=33.0 size=    5135kB time=00:00:04.36 bitrate=9645.8kbits/s speed=0.00549x    frame=  309 fps=0.4 q=33.0 size=    5135kB time=00:00:04.38 bitrate=9601.8kbits/s speed=0.00551x    frame=  310 fps=0.4 q=33.0 size=    5135kB time=00:00:04.40 bitrate=9558.1kbits/s speed=0.00551x    frame=  311 fps=0.4 q=33.0 size=    5135kB time=00:00:04.42 bitrate=9514.9kbits/s speed=0.00553x    frame=  312 fps=0.4 q=33.0 size=    5135kB time=00:00:04.44 bitrate=9472.0kbits/s speed=0.00553x    frame=  313 fps=0.4 q=33.0 size=    5135kB time=00:00:04.46 bitrate=9429.6kbits/s speed=0.00547x    frame=  314 fps=0.4 q=33.0 size=    5135kB time=00:00:04.48 bitrate=9387.5kbits/s speed=0.00548x    frame=  316 fps=0.4 q=33.0 size=    5135kB time=00:00:04.52 bitrate=9304.4kbits/s speed=0.00551x    frame=  317 fps=0.4 q=33.0 size=    5135kB time=00:00:04.54 bitrate=9263.5kbits/s speed=0.00552x    frame=  318 fps=0.4 q=33.0 size=    5135kB time=00:00:04.56 bitrate=9222.8kbits/s speed=0.00551x    frame=  319 fps=0.4 q=33.0 size=    5135kB time=00:00:04.58 bitrate=9182.6kbits/s speed=0.00539x    frame=  320 fps=0.4 q=33.0 size=    5135kB time=00:00:04.60 bitrate=9142.7kbits/s speed=0.00541x    frame=  321 fps=0.4 q=33.0 size=    5135kB time=00:00:04.62 bitrate=9103.1kbits/s speed=0.00542x    frame=  325 fps=0.4 q=33.0 size=    5135kB time=00:00:04.70 bitrate=8948.2kbits/s speed=0.00539x    frame=  327 fps=0.4 q=33.0 size=    5135kB time=00:00:04.74 bitrate=8872.7kbits/s speed=0.00541x    frame=  328 fps=0.4 q=33.0 size=    5135kB time=00:00:04.76 bitrate=8835.4kbits/s speed=0.00543x    frame=  329 fps=0.4 q=33.0 size=    5135kB time=00:00:04.78 bitrate=8798.4kbits/s speed=0.00536x    frame=  330 fps=0.4 q=33.0 size=    5135kB time=00:00:04.80 bitrate=8761.8kbits/s speed=0.00537x    frame=  331 fps=0.4 q=33.0 size=    5135kB time=00:00:04.82 bitrate=8725.4kbits/s speed=0.00538x    frame=  332 fps=0.4 q=30.0 size=    5135kB time=00:00:04.84 bitrate=8689.4kbits/s speed=0.00539x    frame=  333 fps=0.4 q=34.0 size=    5135kB time=00:00:04.86 bitrate=8653.6kbits/s speed=0.00541x    frame=  335 fps=0.4 q=34.0 size=    5135kB time=00:00:04.90 bitrate=8583.0kbits/s speed=0.00538x    frame=  336 fps=0.4 q=34.0 size=    5135kB time=00:00:04.92 bitrate=8548.1kbits/s speed=0.0054x    frame=  337 fps=0.4 q=34.0 size=    6717kB time=00:00:04.94 bitrate=11136.2kbits/s speed=0.00541x    frame=  341 fps=0.4 q=34.0 size=    6717kB time=00:00:05.02 bitrate=10958.8kbits/s speed=0.00546x    frame=  342 fps=0.4 q=34.0 size=    6717kB time=00:00:05.04 bitrate=10915.3kbits/s speed=0.00547x    frame=  343 fps=0.4 q=35.0 size=    6717kB time=00:00:05.06 bitrate=10872.2kbits/s speed=0.00548x    frame=  347 fps=0.4 q=34.0 size=    6717kB time=00:00:05.14 bitrate=10703.0kbits/s speed=0.00554x    frame=  348 fps=0.4 q=34.0 size=    6717kB time=00:00:05.16 bitrate=10661.5kbits/s speed=0.00556x    frame=  349 fps=0.4 q=35.0 size=    6717kB time=00:00:05.18 bitrate=10620.3kbits/s speed=0.00554x    frame=  350 fps=0.4 q=35.0 size=    6717kB time=00:00:05.20 bitrate=10579.5kbits/s speed=0.00556x    frame=  351 fps=0.4 q=35.0 size=    6717kB time=00:00:05.22 bitrate=10539.0kbits/s speed=0.00557x    frame=  354 fps=0.4 q=35.0 size=    6717kB time=00:00:05.28 bitrate=10419.2kbits/s speed=0.00561x    frame=  355 fps=0.4 q=35.0 size=    6717kB time=00:00:05.30 bitrate=10379.9kbits/s speed=0.00559x    frame=  356 fps=0.4 q=35.0 size=    6717kB time=00:00:05.32 bitrate=10340.9kbits/s speed=0.0056x    frame=  357 fps=0.4 q=35.0 size=    6717kB time=00:00:05.34 bitrate=10302.2kbits/s speed=0.00561x    frame=  359 fps=0.4 q=35.0 size=    6717kB time=00:00:05.38 bitrate=10225.6kbits/s speed=0.00561x    frame=  360 fps=0.4 q=35.0 size=    6717kB time=00:00:05.40 bitrate=10187.7kbits/s speed=0.00563x    frame=  361 fps=0.4 q=35.0 size=    6717kB time=00:00:05.42 bitrate=10150.2kbits/s speed=0.00563x    frame=  363 fps=0.4 q=35.0 size=    6717kB time=00:00:05.46 bitrate=10075.8kbits/s speed=0.00566x    frame=  365 fps=0.4 q=35.0 size=    6717kB time=00:00:05.50 bitrate=10002.5kbits/s speed=0.00566x    frame=  366 fps=0.4 q=35.0 size=    6717kB time=00:00:05.52 bitrate=9966.3kbits/s speed=0.00567x    frame=  367 fps=0.4 q=35.0 size=    6717kB time=00:00:05.54 bitrate=9930.3kbits/s speed=0.00568x    frame=  369 fps=0.4 q=35.0 size=    6717kB time=00:00:05.58 bitrate=9859.2kbits/s speed=0.0057x    frame=  371 fps=0.4 q=35.0 size=    6717kB time=00:00:05.62 bitrate=9789.0kbits/s speed=0.00569x    frame=  372 fps=0.4 q=35.0 size=    6717kB time=00:00:05.64 bitrate=9754.3kbits/s speed=0.0057x    frame=  373 fps=0.4 q=35.0 size=    6717kB time=00:00:05.66 bitrate=9719.8kbits/s speed=0.00571x    frame=  374 fps=0.4 q=35.0 size=    6717kB time=00:00:05.68 bitrate=9685.6kbits/s speed=0.00568x    frame=  375 fps=0.4 q=35.0 size=    6717kB time=00:00:05.70 bitrate=9651.6kbits/s speed=0.00569x    frame=  376 fps=0.4 q=34.0 size=    6717kB time=00:00:05.72 bitrate=9617.9kbits/s speed=0.00571x    frame=  379 fps=0.4 q=34.0 size=    6717kB time=00:00:05.78 bitrate=9518.1kbits/s speed=0.00576x    frame=  380 fps=0.4 q=34.0 size=    6717kB time=00:00:05.80 bitrate=9485.3kbits/s speed=0.00571x    frame=  381 fps=0.4 q=34.0 size=    6717kB time=00:00:05.82 bitrate=9452.7kbits/s speed=0.00572x    frame=  384 fps=0.4 q=34.0 size=    6717kB time=00:00:05.88 bitrate=9356.2kbits/s speed=0.00578x    frame=  386 fps=0.4 q=34.0 size=    6717kB time=00:00:05.92 bitrate=9293.0kbits/s speed=0.00574x    frame=  387 fps=0.4 q=34.0 size=    6717kB time=00:00:05.94 bitrate=9261.7kbits/s speed=0.00575x    frame=  389 fps=0.4 q=34.0 size=    6717kB time=00:00:05.98 bitrate=9199.8kbits/s speed=0.00574x    frame=  390 fps=0.4 q=34.0 size=    6717kB time=00:00:06.00 bitrate=9169.1kbits/s speed=0.00575x    frame=  391 fps=0.4 q=34.0 size=    6717kB time=00:00:06.02 bitrate=9138.7kbits/s speed=0.00576x    frame=  392 fps=0.4 q=34.0 size=    6717kB time=00:00:06.04 bitrate=9108.4kbits/s speed=0.00576x    frame=  393 fps=0.4 q=34.0 size=    6717kB time=00:00:06.06 bitrate=9078.4kbits/s speed=0.00577x    frame=  395 fps=0.4 q=34.0 size=    6717kB time=00:00:06.10 bitrate=9018.9kbits/s speed=0.00573x    frame=  396 fps=0.4 q=34.0 size=    6717kB time=00:00:06.12 bitrate=8989.4kbits/s speed=0.00574x    frame=  398 fps=0.4 q=34.0 size=    6717kB time=00:00:06.16 bitrate=8931.0kbits/s speed=0.00576x    frame=  399 fps=0.4 q=34.0 size=    6717kB time=00:00:06.18 bitrate=8902.1kbits/s speed=0.00577x    frame=  400 fps=0.4 q=34.0 size=    6717kB time=00:00:06.20 bitrate=8873.4kbits/s speed=0.00578x    frame=  401 fps=0.4 q=34.0 size=    6717kB time=00:00:06.22 bitrate=8844.9kbits/s speed=0.00575x    frame=  402 fps=0.4 q=34.0 size=    6717kB time=00:00:06.24 bitrate=8816.5kbits/s speed=0.00576x    frame=  403 fps=0.4 q=34.0 size=    6717kB time=00:00:06.26 bitrate=8788.4kbits/s speed=0.00573x    frame=  404 fps=0.4 q=34.0 size=    6717kB time=00:00:06.28 bitrate=8760.4kbits/s speed=0.00574x    frame=  405 fps=0.4 q=34.0 size=    6717kB time=00:00:06.30 bitrate=8732.6kbits/s speed=0.00575x    frame=  407 fps=0.4 q=34.0 size=    6717kB time=00:00:06.34 bitrate=8677.5kbits/s speed=0.00577x    frame=  408 fps=0.4 q=34.0 size=    6717kB time=00:00:06.36 bitrate=8650.2kbits/s speed=0.00577x    frame=  409 fps=0.4 q=34.0 size=    6717kB time=00:00:06.38 bitrate=8623.1kbits/s speed=0.00572x    frame=  410 fps=0.4 q=34.0 size=    6717kB time=00:00:06.40 bitrate=8596.2kbits/s speed=0.00573x    frame=  412 fps=0.4 q=34.0 size=    6717kB time=00:00:06.44 bitrate=8542.8kbits/s speed=0.00576x    frame=  413 fps=0.4 q=34.0 size=    6717kB time=00:00:06.46 bitrate=8516.3kbits/s speed=0.00577x    frame=  414 fps=0.4 q=34.0 size=    6717kB time=00:00:06.48 bitrate=8490.0kbits/s speed=0.00578x    frame=  415 fps=0.4 q=34.0 size=    6717kB time=00:00:06.50 bitrate=8463.9kbits/s speed=0.00574x    frame=  416 fps=0.4 q=34.0 size=    6717kB time=00:00:06.52 bitrate=8438.0kbits/s speed=0.00568x    frame=  417 fps=0.4 q=34.0 size=    6717kB time=00:00:06.54 bitrate=8412.2kbits/s speed=0.00569x    frame=  418 fps=0.4 q=34.0 size=    6717kB time=00:00:06.56 bitrate=8386.5kbits/s speed=0.0057x    frame=  421 fps=0.4 q=34.0 size=    6717kB time=00:00:06.62 bitrate=8310.5kbits/s speed=0.00574x    frame=  422 fps=0.4 q=34.0 size=    6717kB time=00:00:06.64 bitrate=8285.5kbits/s speed=0.00567x    frame=  424 fps=0.4 q=34.0 size=    6717kB time=00:00:06.68 bitrate=8235.9kbits/s speed=0.0057x    frame=  425 fps=0.4 q=34.0 size=    6717kB time=00:00:06.70 bitrate=8211.3kbits/s speed=0.0057x    frame=  427 fps=0.4 q=34.0 size=    6717kB time=00:00:06.74 bitrate=8162.6kbits/s speed=0.00565x    frame=  428 fps=0.4 q=34.0 size=    6717kB time=00:00:06.76 bitrate=8138.4kbits/s speed=0.00565x    frame=  429 fps=0.4 q=34.0 size=    6717kB time=00:00:06.78 bitrate=8114.4kbits/s speed=0.00565x    frame=  433 fps=0.4 q=34.0 size=    6717kB time=00:00:06.86 bitrate=8019.8kbits/s speed=0.00565x    frame=  434 fps=0.4 q=34.0 size=    6717kB time=00:00:06.88 bitrate=7996.5kbits/s speed=0.00565x    frame=  435 fps=0.4 q=34.0 size=    6717kB time=00:00:06.90 bitrate=7973.3kbits/s speed=0.00565x    frame=  438 fps=0.4 q=34.0 size=    6717kB time=00:00:06.96 bitrate=7904.6kbits/s speed=0.00561x    frame=  439 fps=0.4 q=34.0 size=    6717kB time=00:00:06.98 bitrate=7882.0kbits/s speed=0.00562x    frame=  440 fps=0.4 q=34.0 size=    6717kB time=00:00:07.00 bitrate=7859.4kbits/s speed=0.00563x    frame=  441 fps=0.4 q=34.0 size=    6717kB time=00:00:07.02 bitrate=7837.1kbits/s speed=0.00564x    frame=  444 fps=0.4 q=34.0 size=    6717kB time=00:00:07.08 bitrate=7770.7kbits/s speed=0.00561x    frame=  445 fps=0.4 q=34.0 size=    6717kB time=00:00:07.10 bitrate=7748.8kbits/s speed=0.00562x    frame=  446 fps=0.4 q=34.0 size=    6717kB time=00:00:07.12 bitrate=7727.0kbits/s speed=0.00563x    frame=  447 fps=0.4 q=34.0 size=    6717kB time=00:00:07.14 bitrate=7705.4kbits/s speed=0.00563x    frame=  448 fps=0.3 q=34.0 size=    6717kB time=00:00:07.16 bitrate=7683.8kbits/s speed=0.00557x    frame=  449 fps=0.3 q=34.0 size=    6717kB time=00:00:07.18 bitrate=7662.4kbits/s speed=0.00558x    frame=  450 fps=0.3 q=34.0 size=    6717kB time=00:00:07.20 bitrate=7641.2kbits/s speed=0.00559x    frame=  452 fps=0.4 q=34.0 size=    6717kB time=00:00:07.24 bitrate=7599.0kbits/s speed=0.00562x    frame=  453 fps=0.4 q=34.0 size=    6717kB time=00:00:07.26 bitrate=7578.0kbits/s speed=0.00563x    frame=  454 fps=0.3 q=34.0 size=    6717kB time=00:00:07.28 bitrate=7557.2kbits/s speed=0.00557x    frame=  456 fps=0.3 q=34.0 size=    6717kB time=00:00:07.32 bitrate=7515.9kbits/s speed=0.0056x    frame=  458 fps=0.3 q=34.0 size=    6717kB time=00:00:07.36 bitrate=7475.1kbits/s speed=0.00555x    frame=  459 fps=0.3 q=34.0 size=    6717kB time=00:00:07.38 bitrate=7454.8kbits/s speed=0.00556x    frame=  460 fps=0.3 q=34.0 size=    6717kB time=00:00:07.40 bitrate=7434.7kbits/s speed=0.00556x    frame=  461 fps=0.3 q=34.0 size=    6717kB time=00:00:07.42 bitrate=7414.6kbits/s speed=0.00557x    frame=  463 fps=0.3 q=34.0 size=    6717kB time=00:00:07.46 bitrate=7374.9kbits/s speed=0.0056x    frame=  464 fps=0.3 q=34.0 size=    6717kB time=00:00:07.48 bitrate=7355.2kbits/s speed=0.00555x    frame=  465 fps=0.3 q=34.0 size=    6717kB time=00:00:07.50 bitrate=7335.6kbits/s speed=0.00555x    frame=  466 fps=0.3 q=34.0 size=    6717kB time=00:00:07.52 bitrate=7316.0kbits/s speed=0.00556x    frame=  467 fps=0.3 q=34.0 size=    6717kB time=00:00:07.54 bitrate=7296.6kbits/s speed=0.00556x    frame=  468 fps=0.3 q=34.0 size=    6717kB time=00:00:07.56 bitrate=7277.3kbits/s speed=0.00553x    frame=  469 fps=0.3 q=34.0 size=    6717kB time=00:00:07.58 bitrate=7258.1kbits/s speed=0.00554x    frame=  470 fps=0.3 q=34.0 size=    6717kB time=00:00:07.60 bitrate=7239.0kbits/s speed=0.00555x    frame=  471 fps=0.3 q=34.0 size=    6717kB time=00:00:07.62 bitrate=7220.1kbits/s speed=0.00555x    frame=  472 fps=0.3 q=34.0 size=    6717kB time=00:00:07.64 bitrate=7201.2kbits/s speed=0.00556x    frame=  473 fps=0.3 q=34.0 size=    6717kB time=00:00:07.66 bitrate=7182.4kbits/s speed=0.00555x    frame=  474 fps=0.3 q=34.0 size=    6717kB time=00:00:07.68 bitrate=7163.7kbits/s speed=0.00551x    frame=  476 fps=0.3 q=34.0 size=    6717kB time=00:00:07.72 bitrate=7126.5kbits/s speed=0.00554x    frame=  477 fps=0.3 q=34.0 size=    6717kB time=00:00:07.74 bitrate=7108.1kbits/s speed=0.00554x    frame=  478 fps=0.3 q=34.0 size=    6717kB time=00:00:07.76 bitrate=7089.8kbits/s speed=0.00555x    frame=  479 fps=0.3 q=34.0 size=    6717kB time=00:00:07.78 bitrate=7071.6kbits/s speed=0.00555x    frame=  480 fps=0.3 q=34.0 size=    6717kB time=00:00:07.80 bitrate=7053.5kbits/s speed=0.00548x    frame=  481 fps=0.3 q=34.0 size=    6717kB time=00:00:07.82 bitrate=7035.4kbits/s speed=0.00549x    frame=  482 fps=0.3 q=34.0 size=    6717kB time=00:00:07.84 bitrate=7017.5kbits/s speed=0.0055x    frame=  486 fps=0.3 q=34.0 size=    6717kB time=00:00:07.92 bitrate=6946.6kbits/s speed=0.00547x    frame=  487 fps=0.3 q=34.0 size=    6717kB time=00:00:07.94 bitrate=6929.1kbits/s speed=0.00547x    frame=  490 fps=0.3 q=34.0 size=    6717kB time=00:00:08.00 bitrate=6877.1kbits/s speed=0.00551x    frame=  492 fps=0.3 q=34.0 size=    6717kB time=00:00:08.04 bitrate=6842.9kbits/s speed=0.00549x    frame=  493 fps=0.3 q=34.0 size=    6717kB time=00:00:08.06 bitrate=6826.0kbits/s speed=0.00549x    frame=  494 fps=0.3 q=34.0 size=    6717kB time=00:00:08.08 bitrate=6809.1kbits/s speed=0.00549x    frame=  495 fps=0.3 q=34.0 size=    6717kB time=00:00:08.10 bitrate=6792.2kbits/s speed=0.00546x    frame=  496 fps=0.3 q=34.0 size=    6717kB time=00:00:08.12 bitrate=6775.5kbits/s speed=0.00547x    frame=  497 fps=0.3 q=34.0 size=    6717kB time=00:00:08.14 bitrate=6758.9kbits/s speed=0.00547x    frame=  500 fps=0.3 q=34.0 size=    6717kB time=00:00:08.20 bitrate=6709.4kbits/s speed=0.00551x    frame=  500 fps=0.3 q=34.0 size=    6717kB time=00:00:08.20 bitrate=6709.4kbits/s speed=0.00544x    frame=  500 fps=0.3 q=-1.0 Lsize=   14487kB time=00:00:09.94 bitrate=11938.0kbits/s speed=0.00535x    
video:14482kB audio:0kB subtitle:0kB other streams:0kB global headers:0kB muxing overhead: 0.031693%
bench: utime=7244.460s
bench: maxrss=6463312kB
[libx264 @ 0x3642120] frame I:3     Avg QP:29.09  size:739497
[libx264 @ 0x3642120] frame P:45    Avg QP:33.39  size:102841
[libx264 @ 0x3642120] frame B:452   Avg QP:36.30  size: 17661
[libx264 @ 0x3642120] consecutive B-frames:  0.6%  0.0%  0.0%  0.0%  0.0%  0.0%  1.4%  3.2%  7.2% 30.0% 19.8%  9.6%  5.2% 14.0%  9.0%  0.0%  0.0%
[libx264 @ 0x3642120] mb I  I16..4: 11.6% 83.9%  4.5%
[libx264 @ 0x3642120] mb P  I16..4:  0.0%  0.4%  0.0%  P16..4: 41.8% 29.2%  7.1%  1.3%  0.0%    skip:20.2%
[libx264 @ 0x3642120] mb B  I16..4:  0.0%  0.0%  0.0%  B16..8: 43.9%  3.8%  0.1%  direct: 0.1%  skip:52.1%  L0:52.9% L1:47.0% BI: 0.2%
[libx264 @ 0x3642120] final ratefactor: 25.99
[libx264 @ 0x3642120] 8x8 transform intra:84.3% inter:64.7%
[libx264 @ 0x3642120] direct mvs  spatial:98.7% temporal:1.3%
[libx264 @ 0x3642120] coded y,uvDC,uvAC intra: 96.1% 83.8% 68.3% inter: 1.9% 1.4% 0.0%
[libx264 @ 0x3642120] i16 v,h,dc,p: 17% 26% 28% 29%
[libx264 @ 0x3642120] i8 v,h,dc,ddl,ddr,vr,hd,vl,hu:  4%  6%  2% 14% 18% 15% 18% 10% 12%
[libx264 @ 0x3642120] i4 v,h,dc,ddl,ddr,vr,hd,vl,hu:  3%  4%  1% 14% 17% 15% 20% 11% 16%
[libx264 @ 0x3642120] i8c dc,h,v,p: 48% 24% 14% 14%
[libx264 @ 0x3642120] Weighted P-Frames: Y:4.4% UV:2.2%
[libx264 @ 0x3642120] ref P L0: 57.4% 14.1% 13.5%  3.7%  3.0%  2.4%  2.1%  0.6%  0.6%  0.5%  0.5%  0.4%  0.4%  0.4%  0.4%  0.1%
[libx264 @ 0x3642120] ref B L0: 77.2%  7.5%  6.5%  1.8%  1.7%  1.5%  1.4%  0.4%  0.4%  0.4%  0.4%  0.3%  0.3%  0.2%  0.0%
[libx264 @ 0x3642120] ref B L1: 93.2%  6.8%
[libx264 @ 0x3642120] kb/s:11863.28
